<?xml version="1.0" encoding="UTF-8" standalone="no"?>
<!-- Created with Inkscape (http://www.inkscape.org/) -->
<svg
   xmlns:dc="http://purl.org/dc/elements/1.1/"
   xmlns:cc="http://creativecommons.org/ns#"
   xmlns:rdf="http://www.w3.org/1999/02/22-rdf-syntax-ns#"
   xmlns:svg="http://www.w3.org/2000/svg"
   xmlns="http://www.w3.org/2000/svg"
   xmlns:xlink="http://www.w3.org/1999/xlink"
   xmlns:sodipodi="http://sodipodi.sourceforge.net/DTD/sodipodi-0.dtd"
   xmlns:inkscape="http://www.inkscape.org/namespaces/inkscape"
   id="svg2"
   width="601.58057"
   height="270.27927"
   version="1.0"
   sodipodi:version="0.32"
   inkscape:version="0.46"
   sodipodi:docname="altus-metrum-logo-horizontal.svg"
   inkscape:output_extension="org.inkscape.output.svg.inkscape"
   inkscape:export-filename="/home/keithp/src/cc1111/altus-logo/bottom.png"
   inkscape:export-xdpi="119.89881"
   inkscape:export-ydpi="119.89881">
  <metadata
     id="metadata14">
    <rdf:RDF>
      <cc:Work
         rdf:about="">
        <dc:format>image/svg+xml</dc:format>
        <dc:type
           rdf:resource="http://purl.org/dc/dcmitype/StillImage" />
      </cc:Work>
    </rdf:RDF>
  </metadata>
  <defs
     id="defs12">
    <linearGradient
       id="linearGradient3165">
      <stop
         style="stop-color:#000000;stop-opacity:1;"
         offset="0"
         id="stop3167" />
      <stop
         style="stop-color:#000000;stop-opacity:0;"
         offset="1"
         id="stop3169" />
    </linearGradient>
    <linearGradient
       id="linearGradient3177">
      <stop
         style="stop-color:#da7000;stop-opacity:1;"
         offset="0"
         id="stop3179" />
      <stop
         id="stop3447"
         offset="0.24528302"
         style="stop-color:#a63852;stop-opacity:1;" />
      <stop
         style="stop-color:#7200a4;stop-opacity:1;"
         offset="1"
         id="stop3181" />
    </linearGradient>
    <linearGradient
       id="linearGradient3169">
      <stop
         style="stop-color:#ff8a00;stop-opacity:1;"
         offset="0"
         id="stop3171" />
      <stop
         id="stop3445"
         offset="0.71698111"
         style="stop-color:#c24573;stop-opacity:0.98039216;" />
      <stop
         style="stop-color:#8500e7;stop-opacity:0.96078432;"
         offset="1"
         id="stop3173" />
    </linearGradient>
    <inkscape:perspective
       sodipodi:type="inkscape:persp3d"
       inkscape:vp_x="0 : 121 : 1"
       inkscape:vp_y="0 : 1000 : 0"
       inkscape:vp_z="191 : 121 : 1"
       inkscape:persp3d-origin="95.5 : 80.666667 : 1"
       id="perspective16" />
    <radialGradient
       inkscape:collect="always"
       xlink:href="#linearGradient3169"
       id="radialGradient3175"
       cx="951.68713"
       cy="2305.2668"
       fx="951.68713"
       fy="2305.2668"
       r="951.68702"
       gradientTransform="matrix(1,0,0,1.2664529,0,-321.14689)"
       gradientUnits="userSpaceOnUse" />
    <linearGradient
       inkscape:collect="always"
       xlink:href="#linearGradient3177"
       id="linearGradient3183"
       x1="170.6575"
       y1="110.17125"
       x2="614.24875"
       y2="110.17125"
       gradientUnits="userSpaceOnUse" />
    <radialGradient
       inkscape:collect="always"
       xlink:href="#linearGradient3165"
       id="radialGradient3171"
       cx="951.68713"
       cy="1205.2668"
       fx="951.68713"
       fy="1205.2668"
       r="951.68702"
       gradientTransform="matrix(1,0,0,1.2664529,0,-321.14689)"
       gradientUnits="userSpaceOnUse" />
  </defs>
  <sodipodi:namedview
     inkscape:cy="107.44765"
     inkscape:cx="98.612124"
     inkscape:zoom="0.86831672"
     inkscape:window-height="709"
     inkscape:window-width="1006"
     inkscape:pageshadow="2"
     inkscape:pageopacity="0.0"
     guidetolerance="10.0"
     gridtolerance="10.0"
     objecttolerance="10.0"
     borderopacity="1.0"
     bordercolor="#666666"
     pagecolor="#ffffff"
     id="base"
     showgrid="false"
     inkscape:window-x="722"
     inkscape:window-y="43"
     inkscape:current-layer="svg2" />
  <g
     transform="matrix(0.1,0,0,0.1,-1.1e-5,0)"
     id="g3"
     style="fill-opacity:1;fill:url(#radialGradient3175);stroke:url(#radialGradient3171);stroke-width:1;stroke-miterlimit:4;stroke-dasharray:none">
    <g
       transform="translate(20.61545,-27.69425)"
       style="opacity:1;fill:url(#radialGradient3175);fill-opacity:1;fill-rule:evenodd;stroke:url(#radialGradient3171);stroke-width:1;stroke-miterlimit:4;stroke-dasharray:none"
       id="g5">
      <path
         d="M 931.07168,1164.597 L 1179.9416,832.79435 L 1596.1103,2171.1237 L 1882.7587,2438.2279 L 1362.3363,2438.2279 L 1092.0566,2176.0098 L 1092.0566,1142.9471 L 931.07168,1249.6289 L 770.08676,1142.9471 L 770.08676,2176.0098 L 499.80706,2438.2279 L -20.61534,2438.2279 L 266.03306,2171.1237 L 682.20176,832.79435 L 931.07168,1164.597 z"
         id="path7"
         style="fill-opacity:1;fill:url(#radialGradient3175);stroke:url(#radialGradient3171);stroke-width:1;stroke-miterlimit:4;stroke-dasharray:none" />
      <path
         d="M 931.07168,27.69425 L 1155.1085,748.15942 L 1091.7675,824.16855 L 931.07168,486.3269 L 770.37586,824.16855 L 707.03486,748.15942 L 931.07168,27.69425 z"
         id="path9"
         style="fill-opacity:1;fill:url(#radialGradient3175);stroke:url(#radialGradient3171);stroke-width:1;stroke-miterlimit:4;stroke-dasharray:none" />
    </g>
  </g>
  <path
     transform="translate(-6.9099324,24.184724)"
     style="font-size:120px;font-style:normal;font-variant:normal;font-weight:bold;font-stretch:normal;text-align:start;line-height:100%;writing-mode:lr-tb;text-anchor:start;fill:url(#linearGradient3183);fill-opacity:1;stroke:none;stroke-width:1pt;stroke-linecap:butt;stroke-linejoin:miter;stroke-opacity:1;font-family:ITC Benguiat Gothic Std;-inkscape-font-specification:ITC Benguiat Gothic Std Bold"
     d="M 224.1775,44.59125 C 237.61749,44.59125 254.7775,52.751267 257.8975,70.03125 C 259.0975,76.511244 260.53751,79.99125 266.5375,79.99125 C 270.7375,79.99125 273.7375,76.631244 273.7375,70.39125 C 273.7375,66.671254 270.49748,45.07122 254.7775,15.43125 C 247.93751,2.471263 243.85749,-3.64875 236.8975,-3.64875 C 228.49751,-3.64875 224.65749,2.471263 217.8175,15.43125 C 202.09752,45.07122 200.0575,66.671254 200.0575,70.39125 C 200.0575,76.151244 201.37751,79.99125 207.8575,79.99125 C 212.1775,79.99125 214.6975,77.351246 215.1775,72.91125 C 216.0175,64.871258 217.8175,53.351241 221.0575,44.59125 L 224.1775,44.59125 M 224.6575,32.59125 C 227.7775,25.151257 231.7375,17.951243 236.5375,10.75125 C 242.41749,20.111241 246.9775,30.19126 250.5775,40.51125 L 250.3375,40.75125 C 242.41751,34.271256 232.09749,32.59125 226.2175,32.59125 L 224.6575,32.59125 M 300.97375,2.11125 C 300.97375,-2.2087457 298.69375,-5.68875 293.77375,-5.68875 C 288.85375,-5.68875 286.57375,-2.2087457 286.57375,2.11125 L 286.57375,72.19125 C 286.57375,76.511246 288.85375,79.99125 293.77375,79.99125 C 298.69375,79.99125 300.97375,76.511246 300.97375,72.19125 L 300.97375,2.11125 M 347.335,31.63125 C 351.175,31.63125 354.295,29.591246 354.295,25.15125 C 354.295,20.711254 351.175,18.67125 347.335,18.67125 L 336.775,18.67125 L 336.775,8.47125 C 336.775,4.1512543 334.495,0.67125 329.575,0.67125 C 324.655,0.67125 322.375,4.1512543 322.375,8.47125 L 322.375,18.67125 L 318.295,18.67125 C 314.335,18.67125 311.215,20.711254 311.215,25.15125 C 311.215,29.591246 314.335,31.63125 318.295,31.63125 L 322.375,31.63125 L 322.375,57.55125 C 322.375,79.631228 330.77502,79.63125 349.015,79.63125 C 355.49499,79.63125 358.735,77.471245 358.735,72.79125 C 358.735,68.111255 355.495,65.95125 351.415,65.95125 L 343.735,65.95125 C 338.21501,65.95125 336.775,62.591243 336.775,55.39125 L 336.775,31.63125 L 347.335,31.63125 M 416.29562,25.75125 C 416.29562,21.431254 414.01562,17.95125 409.09562,17.95125 C 404.17563,17.95125 401.89562,21.431254 401.89562,25.75125 L 401.89562,50.59125 C 401.89562,61.751239 396.61562,67.39125 388.45562,67.39125 C 381.97563,67.39125 378.73563,63.311242 378.73563,54.91125 L 378.73563,25.75125 C 378.73563,21.431254 376.45562,17.95125 371.53562,17.95125 C 366.61563,17.95125 364.33562,21.431254 364.33562,25.75125 L 364.33562,58.75125 C 364.33562,70.991238 372.73564,80.35125 385.69563,80.35125 C 392.29562,80.35125 397.09563,78.431245 401.89562,73.87125 C 401.89562,76.871247 404.17563,80.35125 409.09562,80.35125 C 414.01562,80.35125 416.29562,76.871246 416.29562,72.55125 L 416.29562,25.75125 M 456.8125,79.63125 C 470.37249,79.63125 480.4525,73.511235 480.4525,58.99125 C 480.4525,33.671275 442.6525,42.911242 442.6525,34.63125 C 442.6525,31.751253 445.6525,31.63125 447.8125,31.63125 L 468.8125,31.63125 C 472.6525,31.63125 475.7725,29.591246 475.7725,25.15125 C 475.7725,20.711254 472.6525,18.67125 468.8125,18.67125 L 448.6525,18.67125 C 435.45251,18.67125 428.2525,23.591261 428.2525,34.51125 C 428.2525,59.591225 466.0525,46.511262 466.0525,58.87125 C 466.0525,65.351244 461.49249,66.67125 455.7325,66.67125 L 434.1325,66.67125 C 430.1725,66.67125 427.0525,68.711254 427.0525,73.15125 C 427.0525,77.591246 430.1725,79.63125 434.1325,79.63125 L 456.8125,79.63125 M 240.2575,146.95125 C 235.3375,140.95126 232.4575,133.27124 228.3775,123.31125 C 226.4575,118.63125 223.5775,116.71125 218.7775,116.71125 C 209.53751,116.71125 209.1775,123.79126 207.2575,135.31125 C 204.9775,148.87124 202.9375,172.39126 202.9375,186.07125 C 202.9375,194.47124 203.53751,199.99125 210.3775,199.99125 C 217.09749,199.99125 218.0575,195.43124 218.0575,189.79125 L 218.0575,170.83125 C 218.0575,160.39126 219.2575,149.59124 220.9375,138.55125 L 221.1775,138.55125 C 223.0975,144.67124 231.85751,164.71125 240.2575,164.71125 C 248.65749,164.71125 257.4175,144.67124 259.3375,138.55125 L 259.5775,138.55125 C 261.2575,149.59124 262.4575,160.39126 262.4575,170.83125 L 262.4575,189.79125 C 262.4575,195.43124 263.41751,199.99125 270.1375,199.99125 C 276.97749,199.99125 277.5775,194.47124 277.5775,186.07125 C 277.5775,172.39126 275.5375,148.87124 273.2575,135.31125 C 271.3375,123.79126 270.97749,116.71125 261.7375,116.71125 C 256.9375,116.71125 254.0575,118.63125 252.1375,123.31125 C 248.0575,133.27124 245.1775,140.95126 240.2575,146.95125 M 338.61625,199.63125 C 342.45625,199.63125 345.57625,197.59125 345.57625,193.15125 C 345.57625,188.71125 342.45625,186.67125 338.61625,186.67125 L 323.13625,186.67125 C 313.05626,186.67125 304.53625,183.67124 303.57625,172.39125 L 340.29625,172.39125 C 345.33624,172.39125 346.17625,169.39125 346.17625,165.31125 C 346.17625,151.27126 337.89623,137.95125 317.85625,137.95125 C 299.49627,137.95125 287.73625,151.99127 287.73625,169.99125 C 287.73625,187.87123 299.73627,199.63125 321.09625,199.63125 L 338.61625,199.63125 M 304.53625,161.59125 C 306.21625,154.39126 312.21626,149.95125 317.85625,149.95125 C 323.49624,149.95125 329.49625,154.39126 331.05625,161.59125 L 304.53625,161.59125 M 387.41312,151.63125 C 391.25312,151.63125 394.37313,149.59125 394.37313,145.15125 C 394.37313,140.71125 391.25312,138.67125 387.41312,138.67125 L 376.85312,138.67125 L 376.85312,128.47125 C 376.85312,124.15125 374.57312,120.67125 369.65312,120.67125 C 364.73313,120.67125 362.45312,124.15125 362.45312,128.47125 L 362.45312,138.67125 L 358.37313,138.67125 C 354.41313,138.67125 351.29312,140.71125 351.29312,145.15125 C 351.29312,149.59125 354.41313,151.63125 358.37313,151.63125 L 362.45312,151.63125 L 362.45312,177.55125 C 362.45312,199.63123 370.85314,199.63125 389.09312,199.63125 C 395.57312,199.63125 398.81313,197.47125 398.81313,192.79125 C 398.81313,188.11125 395.57312,185.95125 391.49313,185.95125 L 383.81313,185.95125 C 378.29313,185.95125 376.85312,182.59124 376.85312,175.39125 L 376.85312,151.63125 L 387.41312,151.63125 M 405.37375,191.83125 C 405.37375,196.51125 408.01375,199.99125 412.57375,199.99125 C 417.13375,199.99125 419.77375,196.51125 419.77375,191.83125 L 419.77375,165.55125 C 419.77375,154.51126 423.25376,151.63125 430.33375,151.63125 C 435.49374,151.63125 438.61375,149.47125 438.61375,144.91125 C 438.61375,140.83125 436.45374,137.95125 431.17375,137.95125 C 424.45376,137.95125 419.89375,140.83126 418.93375,147.43125 L 418.69375,147.43125 L 418.45375,143.71125 C 417.97375,138.31126 414.61375,137.95125 411.97375,137.95125 C 407.77375,137.95125 405.37375,140.35125 405.37375,145.27125 L 405.37375,191.83125 M 496.45187,145.75125 C 496.45187,141.43125 494.17187,137.95125 489.25187,137.95125 C 484.33188,137.95125 482.05187,141.43125 482.05187,145.75125 L 482.05187,170.59125 C 482.05187,181.75124 476.77187,187.39125 468.61187,187.39125 C 462.13188,187.39125 458.89188,183.31124 458.89188,174.91125 L 458.89188,145.75125 C 458.89188,141.43125 456.61187,137.95125 451.69187,137.95125 C 446.77188,137.95125 444.49187,141.43125 444.49187,145.75125 L 444.49187,178.75125 C 444.49187,190.99124 452.89189,200.35125 465.85188,200.35125 C 472.45187,200.35125 477.25188,198.43125 482.05187,193.87125 C 482.05187,196.87125 484.33188,200.35125 489.25187,200.35125 C 494.17187,200.35125 496.45187,196.87125 496.45187,192.55125 L 496.45187,145.75125 M 511.04875,192.19125 C 511.04875,196.51125 513.32875,199.99125 518.24875,199.99125 C 523.16875,199.99125 525.44875,196.51125 525.44875,192.19125 L 525.44875,167.71125 C 525.44875,156.43126 530.60876,150.91125 536.96875,150.91125 C 545.00874,150.91125 546.68875,157.27126 546.68875,165.55125 L 546.68875,192.19125 C 546.68875,196.51125 548.96875,199.99125 553.88875,199.99125 C 558.80875,199.99125 561.08875,196.51125 561.08875,192.19125 L 561.08875,167.71125 C 561.08875,156.43126 566.24876,150.91125 572.60875,150.91125 C 580.64874,150.91125 582.32875,157.27126 582.32875,165.55125 L 582.32875,192.19125 C 582.32875,196.51125 584.60875,199.99125 589.52875,199.99125 C 594.44875,199.99125 596.72875,196.51125 596.72875,192.19125 L 596.72875,159.55125 C 596.72875,147.31126 588.32874,137.95125 575.36875,137.95125 C 567.44876,137.95125 561.20874,142.15125 556.04875,146.95125 C 550.52876,140.11126 546.20874,137.95125 539.24875,137.95125 C 533.36876,137.95125 528.20875,140.35125 524.00875,144.43125 C 524.00875,141.07125 521.96875,137.95125 517.52875,137.95125 C 513.08875,137.95125 511.04875,141.07125 511.04875,144.91125 L 511.04875,192.19125"
     id="flowRoot2389" />
</svg>
