<?xml version="1.0" encoding="UTF-8" standalone="no"?>
<!-- Created with Inkscape (http://www.inkscape.org/) -->

<svg
   xmlns:dc="http://purl.org/dc/elements/1.1/"
   xmlns:cc="http://creativecommons.org/ns#"
   xmlns:rdf="http://www.w3.org/1999/02/22-rdf-syntax-ns#"
   xmlns:svg="http://www.w3.org/2000/svg"
   xmlns="http://www.w3.org/2000/svg"
   xmlns:xlink="http://www.w3.org/1999/xlink"
   xmlns:sodipodi="http://sodipodi.sourceforge.net/DTD/sodipodi-0.dtd"
   xmlns:inkscape="http://www.inkscape.org/namespaces/inkscape"
   width="320"
   height="65"
   id="svg2"
   version="1.1"
   inkscape:version="0.48.3.1 r9886"
   sodipodi:docname="micropeak-oneline-font.svg">
  <defs
     id="defs4">
    <linearGradient
       id="linearGradient3808">
      <stop
         id="stop3810"
         offset="0"
         style="stop-color:#da7000;stop-opacity:1;" />
      <stop
         style="stop-color:#a63852;stop-opacity:1;"
         offset="0.25"
         id="stop3816" />
      <stop
         id="stop3812"
         offset="1"
         style="stop-color:#7200a4;stop-opacity:1;" />
    </linearGradient>
    <linearGradient
       id="linearGradient5343">
      <stop
         style="stop-color:#7200a4;stop-opacity:1;"
         offset="0"
         id="stop5345" />
      <stop
         style="stop-color:#da7000;stop-opacity:1;"
         offset="1"
         id="stop5347" />
    </linearGradient>
    <marker
       inkscape:stockid="Arrow2Send"
       orient="auto"
       refY="0"
       refX="0"
       id="Arrow2Send"
       style="overflow:visible">
      <path
         id="path3798"
         style="fill-rule:evenodd;stroke-width:0.625;stroke-linejoin:round"
         d="M 8.7185878,4.0337352 -2.2072895,0.01601326 8.7185884,-4.0017078 c -1.7454984,2.3720609 -1.7354408,5.6174519 -6e-7,8.035443 z"
         transform="matrix(-0.3,0,0,-0.3,0.69,0)"
         inkscape:connector-curvature="0" />
    </marker>
    <marker
       inkscape:stockid="Arrow1Send"
       orient="auto"
       refY="0"
       refX="0"
       id="Arrow1Send"
       style="overflow:visible">
      <path
         id="path3780"
         d="M 0,0 5,-5 -12.5,0 5,5 0,0 z"
         style="fill-rule:evenodd;stroke:#000000;stroke-width:1pt"
         transform="matrix(-0.2,0,0,-0.2,-1.2,0)"
         inkscape:connector-curvature="0" />
    </marker>
    <marker
       inkscape:stockid="Arrow2Mend"
       orient="auto"
       refY="0"
       refX="0"
       id="Arrow2Mend"
       style="overflow:visible">
      <path
         id="path3792"
         style="fill-rule:evenodd;stroke-width:0.625;stroke-linejoin:round"
         d="M 8.7185878,4.0337352 -2.2072895,0.01601326 8.7185884,-4.0017078 c -1.7454984,2.3720609 -1.7354408,5.6174519 -6e-7,8.035443 z"
         transform="scale(-0.6,-0.6)"
         inkscape:connector-curvature="0" />
    </marker>
    <marker
       inkscape:stockid="Arrow1Lend"
       orient="auto"
       refY="0"
       refX="0"
       id="Arrow1Lend"
       style="overflow:visible">
      <path
         id="path3768"
         d="M 0,0 5,-5 -12.5,0 5,5 0,0 z"
         style="fill-rule:evenodd;stroke:#000000;stroke-width:1pt"
         transform="matrix(-0.8,0,0,-0.8,-10,0)"
         inkscape:connector-curvature="0" />
    </marker>
    <marker
       inkscape:stockid="Arrow2Lend"
       orient="auto"
       refY="0"
       refX="0"
       id="Arrow2Lend"
       style="overflow:visible">
      <path
         id="path3786"
         style="fill-rule:evenodd;stroke-width:0.625;stroke-linejoin:round"
         d="M 8.7185878,4.0337352 -2.2072895,0.01601326 8.7185884,-4.0017078 c -1.7454984,2.3720609 -1.7354408,5.6174519 -6e-7,8.035443 z"
         transform="matrix(-1.1,0,0,-1.1,-1.1,0)"
         inkscape:connector-curvature="0" />
    </marker>
    <linearGradient
       inkscape:collect="always"
       xlink:href="#linearGradient5343"
       id="linearGradient5349"
       x1="255.48561"
       y1="275.90405"
       x2="280.61411"
       y2="275.90405"
       gradientUnits="userSpaceOnUse"
       gradientTransform="matrix(1.6255492,0,0,1.6255492,-151.34839,-182.76246)" />
    <linearGradient
       inkscape:collect="always"
       xlink:href="#linearGradient3808"
       id="linearGradient3806"
       x1="317.70035"
       y1="260.86072"
       x2="561.98914"
       y2="260.86072"
       gradientUnits="userSpaceOnUse" />
  </defs>
  <sodipodi:namedview
     id="base"
     pagecolor="#ffffff"
     bordercolor="#666666"
     borderopacity="1.0"
     inkscape:pageopacity="0.0"
     inkscape:pageshadow="2"
     inkscape:zoom="2.8852983"
     inkscape:cx="136.59598"
     inkscape:cy="-4.9726344"
     inkscape:document-units="px"
     inkscape:current-layer="layer1"
     showgrid="false"
     inkscape:window-width="1871"
     inkscape:window-height="1383"
     inkscape:window-x="112"
     inkscape:window-y="220"
     inkscape:window-maximized="0"
     fit-margin-top="0"
     fit-margin-left="0"
     fit-margin-right="0"
     fit-margin-bottom="0" />
  <metadata
     id="metadata7">
    <rdf:RDF>
      <cc:Work
         rdf:about="">
        <dc:format>image/svg+xml</dc:format>
        <dc:type
           rdf:resource="http://purl.org/dc/dcmitype/StillImage" />
        <dc:title></dc:title>
      </cc:Work>
    </rdf:RDF>
  </metadata>
  <g
     inkscape:label="Layer 1"
     inkscape:groupmode="layer"
     id="layer1"
     transform="translate(-241.9891,-227.23188)">
    <g
       style="font-size:59.34856796px;font-style:normal;font-variant:normal;font-weight:500;font-stretch:normal;text-align:start;line-height:125%;letter-spacing:0px;word-spacing:0px;writing-mode:lr-tb;text-anchor:start;fill:#7200a4;fill-opacity:1;stroke:none;font-family:ITC Benguiat Gothic Std;-inkscape-font-specification:ITC Benguiat Gothic Std Medium"
       id="text2985">
      <path
         d="m 267.1529,253.00248 c 0,-1.78046 -0.65284,-3.08613 -2.61134,-3.08613 -1.9585,0 -2.61134,1.30567 -2.61134,3.08613 l 0,14.303 c 0,4.74788 -3.38287,8.4275 -7.95271,8.4275 -5.04462,0 -6.76573,-3.08613 -6.76573,-8.36815 l 0,-14.36235 c 0,-1.78046 -0.65284,-3.08613 -2.61134,-3.08613 -1.9585,0 -2.61134,1.30567 -2.61134,3.08613 l 0,36.14327 c 0,1.78046 0.65284,3.08613 2.61134,3.08613 1.9585,0 2.61134,-1.30567 2.61134,-3.08613 l 0,-10.1486 c 1.30566,1.00892 3.44222,1.60241 5.87551,1.60241 3.7983,0 7.29987,-1.30567 9.31772,-4.92593 l 0.1187,0.1187 0,2.0772 c 0,1.42436 0.89023,2.37394 2.31459,2.37394 1.42437,0 2.3146,-0.94958 2.3146,-2.37394 l 0,-24.86705"
         style="line-height:125%;fill:#7200a4;font-family:ITC Benguiat Gothic Std;-inkscape-font-specification:ITC Benguiat Gothic Std Medium"
         id="path3863" />
    </g>
    <path
       style="fill:none;stroke:url(#linearGradient5349);stroke-width:4.71409273;stroke-linecap:round;stroke-linejoin:miter;stroke-miterlimit:4;stroke-opacity:1;stroke-dasharray:none;marker-end:none"
       d="m 266.31309,289.79001 c 4.94203,-0.39685 6.99502,-4.33911 8.74981,-9.04787 2.73188,-7.33063 5.96925,-25.79591 14.01592,-33.4136 6.61078,-6.25837 13.36777,-5.63507 13.36777,-5.63507"
       id="path2991"
       inkscape:connector-curvature="0"
       sodipodi:nodetypes="cssc" />
    <path
       sodipodi:type="star"
       style="fill:none;stroke:#da7000;stroke-width:1.10000002;stroke-linecap:round;stroke-linejoin:miter;stroke-miterlimit:4;stroke-opacity:1;stroke-dasharray:none"
       id="path5341"
       sodipodi:sides="5"
       sodipodi:cx="279.29056"
       sodipodi:cy="261.05426"
       sodipodi:r1="7.2514729"
       sodipodi:r2="3.6257365"
       sodipodi:arg1="1.0731354"
       sodipodi:arg2="1.7014539"
       inkscape:flatsided="false"
       inkscape:rounded="0"
       inkscape:randomized="0"
       d="m 282.7522,267.42614 -3.93403,-2.77705 -4.51792,1.66641 1.42544,-4.59964 -2.98096,-3.78185 4.815,-0.0657 2.67559,-4.00372 1.55039,4.55904 4.63457,1.30742 -3.85681,2.88333 z"
       inkscape:transform-center-x="-0.47457321"
       inkscape:transform-center-y="-0.66467392"
       transform="matrix(1.6255492,0,0,1.6255492,-151.34839,-182.76246)" />
    <g
       style="font-size:56.1113739px;font-style:normal;font-variant:normal;font-weight:500;font-stretch:normal;text-align:start;line-height:125%;letter-spacing:0px;word-spacing:0px;writing-mode:lr-tb;text-anchor:start;fill:url(#linearGradient3806);fill-opacity:1;stroke:none;font-family:ITC Benguiat Gothic Std;-inkscape-font-specification:ITC Benguiat Gothic Std Medium"
       id="text5351">
      <path
         d="m 334.36543,263.24545 c 3.42279,0 8.47282,-10.94173 9.70727,-13.63507 l 0.11222,0 c 1.68334,9.20226 1.90779,18.51676 1.90779,27.21402 0,2.18834 0.61722,3.42279 2.4689,3.42279 1.68334,0 2.4689,-1.34667 2.4689,-3.42279 0,-7.63114 -1.4589,-24.24012 -2.97391,-31.14181 -0.39278,-1.90779 -1.40278,-4.37669 -3.25446,-4.37669 -3.14223,0 -4.4328,7.3506 -10.43671,15.76729 -6.00391,-8.41669 -7.29448,-15.76729 -10.43672,-15.76729 -1.85167,0 -2.86168,2.4689 -3.25446,4.37669 -1.515,6.90169 -2.9739,23.51067 -2.9739,31.14181 0,2.07612 0.78556,3.42279 2.4689,3.42279 1.85167,0 2.4689,-1.23445 2.4689,-3.42279 0,-8.69726 0.22445,-18.01176 1.85168,-27.21402 l 0.11222,0 c 1.29056,2.69334 6.34059,13.63507 9.76338,13.63507"
         style=""
         id="path3866" />
      <path
         d="m 363.35572,254.32374 c 0,-1.68334 -0.61723,-2.91779 -2.4689,-2.91779 -1.85167,0 -2.4689,1.23445 -2.4689,2.91779 l 0,23.00566 c 0,1.68334 0.61723,2.91779 2.4689,2.91779 1.85167,0 2.4689,-1.23445 2.4689,-2.91779 l 0,-23.00566 m -2.4689,-12.51284 c -1.79556,0 -2.63723,1.57112 -2.63723,3.25446 0,1.68334 0.84167,3.25446 2.63723,3.25446 1.79556,0 2.63724,-1.57112 2.63724,-3.25446 0,-1.68334 -0.84168,-3.25446 -2.63724,-3.25446"
         style=""
         id="path3868" />
      <path
         d="m 386.90321,275.47772 c -6.84558,0 -12.28839,-4.26447 -12.28839,-11.78338 0,-5.21836 2.86169,-7.8556 9.81949,-7.8556 l 6.3967,0 c 1.515,0 2.52501,-0.67333 2.52501,-2.13223 0,-1.45889 -1.01001,-2.13223 -2.52501,-2.13223 l -9.53894,0 c -7.35058,0 -11.95172,5.16225 -11.95172,11.95172 0,10.21226 8.47283,16.55286 16.10397,16.55286 l 6.67725,0 c 1.57112,0 2.69335,-0.72945 2.69335,-2.30057 0,-1.57112 -1.12223,-2.30057 -2.69335,-2.30057 l -5.21836,0"
         style=""
         id="path3870" />
      <path
         d="m 399.02327,277.3294 c 0,1.68334 0.61723,2.91779 2.4689,2.91779 1.85167,0 2.4689,-1.23445 2.4689,-2.91779 l 0,-14.86951 c 0,-4.37669 3.47891,-6.62115 7.57503,-6.62115 1.79557,0 2.52502,-0.84167 2.52502,-2.41279 0,-1.62722 -1.06612,-2.18834 -2.91779,-2.18834 -3.59113,0 -6.00392,1.34668 -7.07004,4.88169 l -0.11222,0 0,-1.62723 c 0,-1.68334 -0.61723,-2.91779 -2.4689,-2.91779 -1.85167,0 -2.4689,1.23445 -2.4689,2.91779 l 0,22.83733"
         style=""
         id="path3872" />
      <path
         d="m 428.50454,276.15106 c -5.10613,0 -8.52893,-4.88169 -8.52893,-10.32449 0,-5.4428 3.4228,-10.32449 8.52893,-10.32449 5.16224,0 8.58504,4.88169 8.58504,10.32449 0,5.4428 -3.4228,10.32449 -8.58504,10.32449 m 0,4.26447 c 7.63113,0 13.52284,-6.3406 13.52284,-14.64507 0,-7.74336 -5.89171,-14.53285 -13.52284,-14.53285 -7.63114,0 -13.46673,6.78949 -13.46673,14.53285 0,8.30447 5.83559,14.64507 13.46673,14.64507"
         style=""
         id="path3874" />
      <path
         d="m 453.56616,263.13322 c 6.90169,-2.4689 21.7151,-5.16225 21.7151,-14.98173 0,-4.48891 -3.59113,-6.67726 -8.02393,-6.67726 l -16.32841,0 c -1.73945,0 -2.30056,1.12223 -2.30056,2.69335 l 0,33.16182 c 0,1.73945 0.78556,2.91779 2.4689,2.91779 1.68334,0 2.4689,-1.17834 2.4689,-2.91779 l 0,-14.19618 m 12.79339,-17.05786 c 1.9639,0 3.42279,0.67334 3.42279,2.86168 0,5.05002 -10.54894,6.78948 -16.21618,9.14616 l 0,-12.00784 12.79339,0"
         style=""
         id="path3876" />
      <path
         d="m 483.22891,262.34766 c 0.72945,-3.59112 3.31058,-6.84558 8.69726,-6.84558 4.54502,0 7.4067,2.91779 7.63115,6.84558 l -16.32841,0 m 18.51675,3.81558 c 2.69335,0 2.74946,-0.61723 2.74946,-2.97391 0,-7.07002 -5.55503,-11.95172 -12.51284,-11.95172 -8.36058,0 -14.25229,5.72337 -14.25229,14.14007 0,9.87559 6.22837,14.70118 13.63507,14.70118 l 10.77338,0 c 1.51501,0 2.52501,-0.67334 2.52501,-2.13223 0,-1.4589 -1.01,-2.13224 -2.52501,-2.13224 l -10.66116,0 c -4.60113,0 -8.8656,-3.14224 -8.47282,-9.65115 l 18.7412,0"
         style=""
         id="path3878" />
      <path
         d="m 526.4145,269.97881 c 0,4.88168 -2.74946,6.62114 -7.4067,6.62114 -4.20835,0 -6.62114,-1.51501 -6.62114,-4.88169 0,-5.27446 7.57504,-6.84558 14.02784,-6.84558 l 0,5.10613 m -4.54502,-13.8034 c 3.42279,0 4.54502,0.78556 4.54502,3.19835 l 0,1.68334 c -7.23836,0.44889 -18.96564,1.12224 -18.96564,10.88561 0,5.33057 4.54503,8.47282 10.77338,8.47282 3.81557,0 5.61114,-1.01001 8.52893,-3.19835 0,1.79556 0.72945,2.86168 2.30057,2.86168 1.57111,0 2.30056,-1.06612 2.30056,-2.86168 l 0,-15.54285 c 0,-4.99391 -1.34668,-10.10005 -8.75337,-10.10005 l -10.3806,0 c -1.62723,0 -2.69335,0.72945 -2.69335,2.30057 0,1.57111 1.06612,2.30056 2.69335,2.30056 l 9.65115,0"
         style=""
         id="path3880" />
      <path
         d="m 538.36622,277.3294 c 0,1.68334 0.61723,2.91779 2.4689,2.91779 1.85167,0 2.4689,-1.23445 2.4689,-2.91779 l 0,-13.74729 c 9.37059,1.29056 12.40061,4.26448 13.74729,13.8034 0.22444,1.57112 0.44889,2.86168 2.41278,2.86168 1.62723,0 2.52502,-0.84167 2.52502,-2.63723 0,-6.39669 -3.31058,-13.74729 -9.81949,-15.71119 l 0,-0.11222 c 3.14223,-1.06612 7.68725,-4.71336 7.68725,-8.3606 0,-1.23444 -0.84167,-2.24445 -1.79556,-2.24445 -1.85167,0 -2.24446,1.29056 -4.04002,3.81557 -2.02001,2.9739 -5.83559,4.99392 -9.53893,4.99392 l -1.17834,0 0,-15.7673 c 0,-1.68334 -0.61723,-2.91779 -2.4689,-2.91779 -1.85167,0 -2.4689,1.23445 -2.4689,2.91779 l 0,33.10571"
         style=""
         id="path3882" />
    </g>
  </g>
</svg>
