<?xml version="1.0" encoding="UTF-8" standalone="no"?>
<!DOCTYPE svg PUBLIC "-//W3C//DTD SVG 1.1//EN"
 "http://www.w3.org/Graphics/SVG/1.1/DTD/svg11.dtd">
<!-- Generated by graphviz version 2.43.0 (0)
 -->
<!-- Title: map_loading Pages: 1 -->
<svg width="281pt" height="293pt"
 viewBox="0.00 0.00 281.00 293.00" xmlns="http://www.w3.org/2000/svg" xmlns:xlink="http://www.w3.org/1999/xlink">
<g id="graph0" class="graph" transform="scale(1 1) rotate(0) translate(4 289)">
<title>map_loading</title>
<polygon fill="white" stroke="transparent" points="-4,4 -4,-289 277,-289 277,4 -4,4"/>
<!-- app -->
<g id="node1" class="node">
<title>app</title>
<polygon fill="#885931" stroke="#885931" points="181.5,-285 98.5,-285 98.5,-264 181.5,-264 181.5,-285"/>
<text text-anchor="middle" x="140" y="-271.4" font-family="DejaVu Sans,sans-serif" font-size="12.00" fill="white">Application</text>
</g>
<!-- apache -->
<g id="node2" class="node">
<title>apache</title>
<polygon fill="#d12127" stroke="#d12127" points="207.5,-219 72.5,-219 72.5,-198 207.5,-198 207.5,-219"/>
<text text-anchor="middle" x="140" y="-205.4" font-family="DejaVu Sans,sans-serif" font-size="12.00" fill="white">Apache Web Server</text>
</g>
<!-- app&#45;&gt;apache -->
<g id="edge1" class="edge">
<title>app&#45;&gt;apache</title>
<path fill="none" stroke="black" stroke-width="2" d="M108.16,-263.86C99.83,-259.74 91.85,-253.97 87,-246 80.54,-235.37 89.72,-227.08 102.16,-221.11"/>
<polygon fill="black" stroke="black" stroke-width="2" points="103.01,-222.65 106.87,-219.02 101.59,-219.45 103.01,-222.65"/>
<text text-anchor="middle" x="116" y="-239.6" font-family="DejaVu Sans,sans-serif" font-size="8.00">AltOS Map URI</text>
<polyline fill="none" stroke="black" points="145,-237 87,-237 104.29,-261.81 "/>
</g>
<!-- apache&#45;&gt;app -->
<g id="edge2" class="edge">
<title>apache&#45;&gt;app</title>
<path fill="none" stroke="black" stroke-width="2" d="M144.47,-219.2C146.6,-224.36 148.92,-230.9 150,-237 151.29,-244.32 149.49,-252.3 147.07,-258.93"/>
<polygon fill="black" stroke="black" stroke-width="2" points="145.39,-258.41 145.15,-263.7 148.64,-259.72 145.39,-258.41"/>
<text text-anchor="middle" x="182" y="-239.6" font-family="DejaVu Sans,sans-serif" font-size="8.00">Google Map tile</text>
<polyline fill="none" stroke="black" points="214,-237 150,-237 150.43,-241.88 "/>
</g>
<!-- cgi_script -->
<g id="node3" class="node">
<title>cgi_script</title>
<polygon fill="#551a8b" stroke="#551a8b" points="211,-153 69,-153 69,-132 211,-132 211,-153"/>
<text text-anchor="middle" x="140" y="-139.4" font-family="DejaVu Sans,sans-serif" font-size="12.00" fill="white">AltOS Map CGI Script</text>
</g>
<!-- apache&#45;&gt;cgi_script -->
<g id="edge3" class="edge">
<title>apache&#45;&gt;cgi_script</title>
<path fill="none" stroke="black" stroke-width="2" d="M108.16,-197.86C99.83,-193.74 91.85,-187.97 87,-180 80.54,-169.37 89.72,-161.08 102.16,-155.11"/>
<polygon fill="black" stroke="black" stroke-width="2" points="103.01,-156.65 106.87,-153.02 101.59,-153.45 103.01,-156.65"/>
<text text-anchor="middle" x="116" y="-173.6" font-family="DejaVu Sans,sans-serif" font-size="8.00">AltOS Map URI</text>
<polyline fill="none" stroke="black" points="145,-171 87,-171 104.29,-195.81 "/>
</g>
<!-- cgi_script&#45;&gt;apache -->
<g id="edge5" class="edge">
<title>cgi_script&#45;&gt;apache</title>
<path fill="none" stroke="black" stroke-width="2" d="M145.15,-153.3C148.36,-160.59 151.62,-170.81 150,-180 149.24,-184.29 147.87,-188.8 146.38,-192.89"/>
<polygon fill="black" stroke="black" stroke-width="2" points="144.65,-192.51 144.47,-197.8 147.91,-193.78 144.65,-192.51"/>
<text text-anchor="middle" x="182" y="-173.6" font-family="DejaVu Sans,sans-serif" font-size="8.00">Google Map tile</text>
<polyline fill="none" stroke="black" points="214,-171 150,-171 150.43,-175.19 "/>
</g>
<!-- cache_manager -->
<g id="node4" class="node">
<title>cache_manager</title>
<polygon fill="#c75b1c" stroke="#c75b1c" points="228.5,-87 51.5,-87 51.5,-66 228.5,-66 228.5,-87"/>
<text text-anchor="middle" x="140" y="-73.4" font-family="DejaVu Sans,sans-serif" font-size="12.00" fill="white">AltOS Map Cache Manager</text>
</g>
<!-- cgi_script&#45;&gt;cache_manager -->
<g id="edge4" class="edge">
<title>cgi_script&#45;&gt;cache_manager</title>
<path fill="none" stroke="black" stroke-width="2" d="M100.3,-131.87C91.52,-127.82 83.26,-122.09 78,-114 70.78,-102.9 80.17,-94.73 93.66,-88.97"/>
<polygon fill="black" stroke="black" stroke-width="2" points="94.36,-90.58 98.37,-87.11 93.08,-87.32 94.36,-90.58"/>
<text text-anchor="middle" x="115.5" y="-107.6" font-family="DejaVu Sans,sans-serif" font-size="8.00">AltOS Tile Request</text>
<polyline fill="none" stroke="black" points="153,-105 78,-105 100.28,-131.86 "/>
</g>
<!-- cache_manager&#45;&gt;cgi_script -->
<g id="edge6" class="edge">
<title>cache_manager&#45;&gt;cgi_script</title>
<path fill="none" stroke="black" stroke-width="2" d="M149.23,-87.05C155.02,-94.21 160.87,-104.39 158,-114 156.59,-118.74 154.07,-123.42 151.35,-127.54"/>
<polygon fill="black" stroke="black" stroke-width="2" points="149.83,-126.67 148.38,-131.77 152.69,-128.69 149.83,-126.67"/>
<text text-anchor="middle" x="190" y="-107.6" font-family="DejaVu Sans,sans-serif" font-size="8.00">AltOS Tile Reply</text>
<polyline fill="none" stroke="black" points="222,-105 158,-105 158.75,-109.01 "/>
</g>
<!-- disk_files -->
<g id="node5" class="node">
<title>disk_files</title>
<polygon fill="#4f81bd" stroke="#4f81bd" points="84,-21 0,-21 0,0 84,0 84,-21"/>
<text text-anchor="middle" x="42" y="-7.4" font-family="DejaVu Sans,sans-serif" font-size="12.00" fill="white">File System</text>
</g>
<!-- cache_manager&#45;&gt;disk_files -->
<g id="edge7" class="edge">
<title>cache_manager&#45;&gt;disk_files</title>
<path fill="none" stroke="black" stroke-width="2" d="M96.93,-64.21C86.47,-60.19 75.78,-54.89 67,-48 59.39,-42.03 53.22,-33.11 48.92,-25.58"/>
<polygon fill="black" stroke="black" stroke-width="2" points="96.41,-65.89 101.71,-65.97 97.62,-62.6 96.41,-65.89"/>
<polygon fill="black" stroke="black" stroke-width="2" points="50.41,-24.66 46.48,-21.11 47.34,-26.34 50.41,-24.66"/>
<text text-anchor="middle" x="95.5" y="-41.6" font-family="DejaVu Sans,sans-serif" font-size="8.00">AltOS tile files</text>
<polyline fill="none" stroke="black" points="124,-39 67,-39 87.61,-60.28 "/>
</g>
<!-- google_maps -->
<g id="node6" class="node">
<title>google_maps</title>
<polygon fill="#4cbb44" stroke="#4cbb44" points="253,-21 159,-21 159,0 253,0 253,-21"/>
<text text-anchor="middle" x="206" y="-7.4" font-family="DejaVu Sans,sans-serif" font-size="12.00" fill="white">Google Maps</text>
</g>
<!-- cache_manager&#45;&gt;google_maps -->
<g id="edge8" class="edge">
<title>cache_manager&#45;&gt;google_maps</title>
<path fill="none" stroke="black" stroke-width="2" d="M135.74,-65.97C132.91,-58.07 130.61,-46.9 136,-39 140.63,-32.21 147.21,-27.1 154.51,-23.24"/>
<polygon fill="black" stroke="black" stroke-width="2" points="155.4,-24.76 159.13,-21.01 153.87,-21.61 155.4,-24.76"/>
<text text-anchor="middle" x="168.5" y="-41.6" font-family="DejaVu Sans,sans-serif" font-size="8.00">Google Map URI</text>
<polyline fill="none" stroke="black" points="201,-39 136,-39 154.47,-23.27 "/>
</g>
<!-- google_maps&#45;&gt;cache_manager -->
<g id="edge9" class="edge">
<title>google_maps&#45;&gt;cache_manager</title>
<path fill="none" stroke="black" stroke-width="2" d="M208.71,-21.02C210.37,-28.92 211.27,-40.09 206,-48 201.5,-54.76 194.98,-59.86 187.78,-63.7"/>
<polygon fill="black" stroke="black" stroke-width="2" points="186.94,-62.17 183.22,-65.94 188.48,-65.31 186.94,-62.17"/>
<text text-anchor="middle" x="241" y="-41.6" font-family="DejaVu Sans,sans-serif" font-size="8.00">Google Map tile</text>
<polyline fill="none" stroke="black" points="273,-39 209,-39 209.54,-38.51 "/>
</g>
</g>
</svg>
