<?xml version="1.0" encoding="UTF-8" standalone="no"?>
<!DOCTYPE svg PUBLIC "-//W3C//DTD SVG 1.1//EN"
 "http://www.w3.org/Graphics/SVG/1.1/DTD/svg11.dtd">
<!-- Generated by graphviz version 2.40.1 (20161225.0304)
 -->
<!-- Title: map_loading Pages: 1 -->
<svg width="290pt" height="293pt"
 viewBox="0.00 0.00 290.00 293.00" xmlns="http://www.w3.org/2000/svg" xmlns:xlink="http://www.w3.org/1999/xlink">
<g id="graph0" class="graph" transform="scale(1 1) rotate(0) translate(4 289)">
<title>map_loading</title>
<polygon fill="#ffffff" stroke="transparent" points="-4,4 -4,-289 286,-289 286,4 -4,4"/>
<!-- app -->
<g id="node1" class="node">
<title>app</title>
<polygon fill="#885931" stroke="#885931" points="184.5,-285 101.5,-285 101.5,-264 184.5,-264 184.5,-285"/>
<text text-anchor="middle" x="143" y="-271.4" font-family="DejaVu Sans,sans-serif" font-size="12.00" fill="#ffffff">Application</text>
</g>
<!-- apache -->
<g id="node2" class="node">
<title>apache</title>
<polygon fill="#d12127" stroke="#d12127" points="210.5,-219 75.5,-219 75.5,-198 210.5,-198 210.5,-219"/>
<text text-anchor="middle" x="143" y="-205.4" font-family="DejaVu Sans,sans-serif" font-size="12.00" fill="#ffffff">Apache Web Server</text>
</g>
<!-- app&#45;&gt;apache -->
<g id="edge1" class="edge">
<title>app&#45;&gt;apache</title>
<path fill="none" stroke="#000000" stroke-width="2" d="M108.8079,-263.9424C100.5892,-259.7117 92.8055,-253.9024 88,-246 81.636,-235.5346 89.9682,-227.3072 101.919,-221.2584"/>
<polygon fill="#000000" stroke="#000000" stroke-width="2" points="102.6799,-222.8345 106.4651,-219.1284 101.1949,-219.6652 102.6799,-222.8345"/>
<text text-anchor="middle" x="118.5" y="-239.6" font-family="DejaVu Sans,sans-serif" font-size="8.00" fill="#000000">AltOS Map URI</text>
<polyline fill="none" stroke="#000000" points="149,-237 88,-237 106.51,-262.7105 "/>
</g>
<!-- apache&#45;&gt;app -->
<g id="edge2" class="edge">
<title>apache&#45;&gt;app</title>
<path fill="none" stroke="#000000" stroke-width="2" d="M148.1441,-219.053C150.4272,-224.3116 152.8539,-230.8475 154,-237 155.3664,-244.3349 153.5291,-252.2879 150.9883,-258.9745"/>
<polygon fill="#000000" stroke="#000000" stroke-width="2" points="149.2797,-258.5226 148.9497,-263.8097 152.5048,-259.8824 149.2797,-258.5226"/>
<text text-anchor="middle" x="187.5" y="-239.6" font-family="DejaVu Sans,sans-serif" font-size="8.00" fill="#000000">Google Map tile</text>
<polyline fill="none" stroke="#000000" points="221,-237 154,-237 154.463,-241.8825 "/>
</g>
<!-- cgi_script -->
<g id="node3" class="node">
<title>cgi_script</title>
<polygon fill="#551a8b" stroke="#551a8b" points="214,-153 72,-153 72,-132 214,-132 214,-153"/>
<text text-anchor="middle" x="143" y="-139.4" font-family="DejaVu Sans,sans-serif" font-size="12.00" fill="#ffffff">AltOS Map CGI Script</text>
</g>
<!-- apache&#45;&gt;cgi_script -->
<g id="edge3" class="edge">
<title>apache&#45;&gt;cgi_script</title>
<path fill="none" stroke="#000000" stroke-width="2" d="M108.8079,-197.9424C100.5892,-193.7117 92.8055,-187.9024 88,-180 81.636,-169.5346 89.9682,-161.3072 101.919,-155.2584"/>
<polygon fill="#000000" stroke="#000000" stroke-width="2" points="102.6799,-156.8345 106.4651,-153.1284 101.1949,-153.6652 102.6799,-156.8345"/>
<text text-anchor="middle" x="118.5" y="-173.6" font-family="DejaVu Sans,sans-serif" font-size="8.00" fill="#000000">AltOS Map URI</text>
<polyline fill="none" stroke="#000000" points="149,-171 88,-171 106.51,-196.7105 "/>
</g>
<!-- cgi_script&#45;&gt;apache -->
<g id="edge5" class="edge">
<title>cgi_script&#45;&gt;apache</title>
<path fill="none" stroke="#000000" stroke-width="2" d="M148.1441,-153.053C150.4272,-158.3116 152.8539,-164.8475 154,-171 155.3664,-178.3349 153.5291,-186.2879 150.9883,-192.9745"/>
<polygon fill="#000000" stroke="#000000" stroke-width="2" points="149.2797,-192.5226 148.9497,-197.8097 152.5048,-193.8824 149.2797,-192.5226"/>
<text text-anchor="middle" x="187.5" y="-173.6" font-family="DejaVu Sans,sans-serif" font-size="8.00" fill="#000000">Google Map tile</text>
<polyline fill="none" stroke="#000000" points="221,-171 154,-171 154.463,-175.8825 "/>
</g>
<!-- cache_manager -->
<g id="node4" class="node">
<title>cache_manager</title>
<polygon fill="#c75b1c" stroke="#c75b1c" points="231.5,-87 54.5,-87 54.5,-66 231.5,-66 231.5,-87"/>
<text text-anchor="middle" x="143" y="-73.4" font-family="DejaVu Sans,sans-serif" font-size="12.00" fill="#ffffff">AltOS Map Cache Manager</text>
</g>
<!-- cgi_script&#45;&gt;cache_manager -->
<g id="edge4" class="edge">
<title>cgi_script&#45;&gt;cache_manager</title>
<path fill="none" stroke="#000000" stroke-width="2" d="M100.6975,-131.8654C92.1265,-127.7107 84.1668,-121.9568 79,-114 71.9416,-103.1302 80.324,-95.0112 93.0978,-89.1602"/>
<polygon fill="#000000" stroke="#000000" stroke-width="2" points="94.0514,-90.6576 97.9821,-87.1062 92.6946,-87.4313 94.0514,-90.6576"/>
<text text-anchor="middle" x="118.5" y="-107.6" font-family="DejaVu Sans,sans-serif" font-size="8.00" fill="#000000">AltOS Tile Request</text>
<polyline fill="none" stroke="#000000" points="158,-105 79,-105 100.6724,-131.8532 "/>
</g>
<!-- cache_manager&#45;&gt;cgi_script -->
<g id="edge6" class="edge">
<title>cache_manager&#45;&gt;cgi_script</title>
<path fill="none" stroke="#000000" stroke-width="2" d="M154.0561,-87.187C160.189,-94.4458 166.0225,-104.4313 163,-114 161.4433,-118.9282 158.6956,-123.7436 155.7259,-127.9717"/>
<polygon fill="#000000" stroke="#000000" stroke-width="2" points="154.3155,-126.9357 152.7183,-131.9866 157.1167,-129.0342 154.3155,-126.9357"/>
<text text-anchor="middle" x="197.5" y="-107.6" font-family="DejaVu Sans,sans-serif" font-size="8.00" fill="#000000">AltOS Tile Reply</text>
<polyline fill="none" stroke="#000000" points="232,-105 163,-105 163.8171,-109.0452 "/>
</g>
<!-- disk_files -->
<g id="node5" class="node">
<title>disk_files</title>
<polygon fill="#4f81bd" stroke="#4f81bd" points="84,-21 0,-21 0,0 84,0 84,-21"/>
<text text-anchor="middle" x="42" y="-7.4" font-family="DejaVu Sans,sans-serif" font-size="12.00" fill="#ffffff">File System</text>
</g>
<!-- cache_manager&#45;&gt;disk_files -->
<g id="edge7" class="edge">
<title>cache_manager&#45;&gt;disk_files</title>
<path fill="none" stroke="#000000" stroke-width="2" d="M96.0289,-64.1051C85.8098,-60.035 75.5195,-54.7605 67,-48 59.4878,-42.0389 53.4384,-33.1903 49.1731,-25.5853"/>
<polygon fill="#000000" stroke="#000000" stroke-width="2" points="95.4171,-65.7447 100.7125,-65.8915 96.6644,-62.4745 95.4171,-65.7447"/>
<polygon fill="#000000" stroke="#000000" stroke-width="2" points="50.6493,-24.6344 46.7507,-21.0478 47.5617,-26.2828 50.6493,-24.6344"/>
<text text-anchor="middle" x="97" y="-41.6" font-family="DejaVu Sans,sans-serif" font-size="8.00" fill="#000000">AltOS tile files</text>
<polyline fill="none" stroke="#000000" points="127,-39 67,-39 88.8556,-61.0412 "/>
</g>
<!-- google_maps -->
<g id="node6" class="node">
<title>google_maps</title>
<polygon fill="#4cbb44" stroke="#4cbb44" points="256,-21 162,-21 162,0 256,0 256,-21"/>
<text text-anchor="middle" x="209" y="-7.4" font-family="DejaVu Sans,sans-serif" font-size="12.00" fill="#ffffff">Google Maps</text>
</g>
<!-- cache_manager&#45;&gt;google_maps -->
<g id="edge8" class="edge">
<title>cache_manager&#45;&gt;google_maps</title>
<path fill="none" stroke="#000000" stroke-width="2" d="M138.3517,-65.7396C135.6616,-57.7107 133.7383,-46.8234 139,-39 143.5482,-32.2376 150.0098,-27.0789 157.1886,-23.1438"/>
<polygon fill="#000000" stroke="#000000" stroke-width="2" points="158.064,-24.6624 161.7405,-20.8484 156.488,-21.5373 158.064,-24.6624"/>
<text text-anchor="middle" x="173" y="-41.6" font-family="DejaVu Sans,sans-serif" font-size="8.00" fill="#000000">Google Map URI</text>
<polyline fill="none" stroke="#000000" points="207,-39 139,-39 157.1466,-23.1669 "/>
</g>
<!-- google_maps&#45;&gt;cache_manager -->
<g id="edge9" class="edge">
<title>google_maps&#45;&gt;cache_manager</title>
<path fill="none" stroke="#000000" stroke-width="2" d="M213.2228,-21.2638C215.6262,-29.2946 217.229,-40.1827 212,-48 207.6674,-54.4772 201.5638,-59.484 194.7602,-63.3537"/>
<polygon fill="#000000" stroke="#000000" stroke-width="2" points="193.5794,-61.9953 189.9512,-65.8552 195.1946,-65.1003 193.5794,-61.9953"/>
<text text-anchor="middle" x="248.5" y="-41.6" font-family="DejaVu Sans,sans-serif" font-size="8.00" fill="#000000">Google Map tile</text>
<polyline fill="none" stroke="#000000" points="282,-39 215,-39 215.2156,-39.0906 "/>
</g>
</g>
</svg>
