<?xml version="1.0" encoding="UTF-8" standalone="no"?>
<!DOCTYPE svg PUBLIC "-//W3C//DTD SVG 1.1//EN"
 "http://www.w3.org/Graphics/SVG/1.1/DTD/svg11.dtd">
<!-- Generated by graphviz version 2.43.0 (0)
 -->
<!-- Title: map_loading Pages: 1 -->
<svg width="290pt" height="293pt"
 viewBox="0.00 0.00 290.00 293.00" xmlns="http://www.w3.org/2000/svg" xmlns:xlink="http://www.w3.org/1999/xlink">
<g id="graph0" class="graph" transform="scale(1 1) rotate(0) translate(4 289)">
<title>map_loading</title>
<polygon fill="white" stroke="transparent" points="-4,4 -4,-289 286,-289 286,4 -4,4"/>
<!-- app -->
<g id="node1" class="node">
<title>app</title>
<polygon fill="#885931" stroke="#885931" points="184.5,-285 101.5,-285 101.5,-264 184.5,-264 184.5,-285"/>
<text text-anchor="middle" x="143" y="-271.4" font-family="DejaVu Sans,sans-serif" font-size="12.00" fill="white">Application</text>
</g>
<!-- apache -->
<g id="node2" class="node">
<title>apache</title>
<polygon fill="#d12127" stroke="#d12127" points="210.5,-219 75.5,-219 75.5,-198 210.5,-198 210.5,-219"/>
<text text-anchor="middle" x="143" y="-205.4" font-family="DejaVu Sans,sans-serif" font-size="12.00" fill="white">Apache Web Server</text>
</g>
<!-- app&#45;&gt;apache -->
<g id="edge1" class="edge">
<title>app&#45;&gt;apache</title>
<path fill="none" stroke="black" stroke-width="2" d="M109.7,-263.98C101.16,-259.87 93,-254.08 88,-246 81.4,-235.32 90.52,-227.1 103.11,-221.18"/>
<polygon fill="black" stroke="black" stroke-width="2" points="104,-222.71 107.89,-219.11 102.61,-219.5 104,-222.71"/>
<text text-anchor="middle" x="118.5" y="-239.6" font-family="DejaVu Sans,sans-serif" font-size="8.00">AltOS Map URI</text>
<polyline fill="none" stroke="black" points="149,-237 88,-237 107.31,-262.78 "/>
</g>
<!-- apache&#45;&gt;app -->
<g id="edge2" class="edge">
<title>apache&#45;&gt;app</title>
<path fill="none" stroke="black" stroke-width="2" d="M148.66,-219.28C152.2,-226.55 155.78,-236.77 154,-246 153.15,-250.43 151.59,-255.05 149.91,-259.21"/>
<polygon fill="black" stroke="black" stroke-width="2" points="148.28,-258.56 147.91,-263.85 151.5,-259.95 148.28,-258.56"/>
<text text-anchor="middle" x="187.5" y="-239.6" font-family="DejaVu Sans,sans-serif" font-size="8.00">Google Map tile</text>
<polyline fill="none" stroke="black" points="221,-237 154,-237 154.47,-241.17 "/>
</g>
<!-- cgi_script -->
<g id="node3" class="node">
<title>cgi_script</title>
<polygon fill="#551a8b" stroke="#551a8b" points="214,-153 72,-153 72,-132 214,-132 214,-153"/>
<text text-anchor="middle" x="143" y="-139.4" font-family="DejaVu Sans,sans-serif" font-size="12.00" fill="white">AltOS Map CGI Script</text>
</g>
<!-- apache&#45;&gt;cgi_script -->
<g id="edge3" class="edge">
<title>apache&#45;&gt;cgi_script</title>
<path fill="none" stroke="black" stroke-width="2" d="M109.7,-197.98C101.16,-193.87 93,-188.08 88,-180 81.4,-169.32 90.52,-161.1 103.11,-155.18"/>
<polygon fill="black" stroke="black" stroke-width="2" points="104,-156.71 107.89,-153.11 102.61,-153.5 104,-156.71"/>
<text text-anchor="middle" x="118.5" y="-173.6" font-family="DejaVu Sans,sans-serif" font-size="8.00">AltOS Map URI</text>
<polyline fill="none" stroke="black" points="149,-171 88,-171 107.31,-196.78 "/>
</g>
<!-- cgi_script&#45;&gt;apache -->
<g id="edge5" class="edge">
<title>cgi_script&#45;&gt;apache</title>
<path fill="none" stroke="black" stroke-width="2" d="M148.66,-153.28C152.2,-160.55 155.78,-170.77 154,-180 153.15,-184.43 151.59,-189.05 149.91,-193.21"/>
<polygon fill="black" stroke="black" stroke-width="2" points="148.28,-192.56 147.91,-197.85 151.5,-193.95 148.28,-192.56"/>
<text text-anchor="middle" x="187.5" y="-173.6" font-family="DejaVu Sans,sans-serif" font-size="8.00">Google Map tile</text>
<polyline fill="none" stroke="black" points="221,-171 154,-171 154.47,-175.17 "/>
</g>
<!-- cache_manager -->
<g id="node4" class="node">
<title>cache_manager</title>
<polygon fill="#c75b1c" stroke="#c75b1c" points="231.5,-87 54.5,-87 54.5,-66 231.5,-66 231.5,-87"/>
<text text-anchor="middle" x="143" y="-73.4" font-family="DejaVu Sans,sans-serif" font-size="12.00" fill="white">AltOS Map Cache Manager</text>
</g>
<!-- cgi_script&#45;&gt;cache_manager -->
<g id="edge4" class="edge">
<title>cgi_script&#45;&gt;cache_manager</title>
<path fill="none" stroke="black" stroke-width="2" d="M101.72,-131.99C92.77,-127.94 84.39,-122.18 79,-114 71.6,-102.77 81.07,-94.61 94.8,-88.89"/>
<polygon fill="black" stroke="black" stroke-width="2" points="95.57,-90.47 99.6,-87.04 94.31,-87.21 95.57,-90.47"/>
<text text-anchor="middle" x="118.5" y="-107.6" font-family="DejaVu Sans,sans-serif" font-size="8.00">AltOS Tile Request</text>
<polyline fill="none" stroke="black" points="158,-105 79,-105 101.7,-131.97 "/>
</g>
<!-- cache_manager&#45;&gt;cgi_script -->
<g id="edge6" class="edge">
<title>cache_manager&#45;&gt;cgi_script</title>
<path fill="none" stroke="black" stroke-width="2" d="M153.52,-87.27C159.85,-94.37 166.13,-104.38 163,-114 161.38,-118.97 158.5,-123.79 155.41,-127.97"/>
<polygon fill="black" stroke="black" stroke-width="2" points="154.01,-126.91 152.29,-131.92 156.76,-129.08 154.01,-126.91"/>
<text text-anchor="middle" x="197.5" y="-107.6" font-family="DejaVu Sans,sans-serif" font-size="8.00">AltOS Tile Reply</text>
<polyline fill="none" stroke="black" points="232,-105 163,-105 163.83,-109.02 "/>
</g>
<!-- disk_files -->
<g id="node5" class="node">
<title>disk_files</title>
<polygon fill="#4f81bd" stroke="#4f81bd" points="84,-21 0,-21 0,0 84,0 84,-21"/>
<text text-anchor="middle" x="42" y="-7.4" font-family="DejaVu Sans,sans-serif" font-size="12.00" fill="white">File System</text>
</g>
<!-- cache_manager&#45;&gt;disk_files -->
<g id="edge7" class="edge">
<title>cache_manager&#45;&gt;disk_files</title>
<path fill="none" stroke="black" stroke-width="2" d="M97.47,-64.22C86.8,-60.22 75.95,-54.93 67,-48 59.35,-42.08 53.18,-33.16 48.89,-25.62"/>
<polygon fill="black" stroke="black" stroke-width="2" points="97.06,-65.93 102.35,-65.97 98.24,-62.63 97.06,-65.93"/>
<polygon fill="black" stroke="black" stroke-width="2" points="50.38,-24.7 46.45,-21.14 47.3,-26.37 50.38,-24.7"/>
<text text-anchor="middle" x="97" y="-41.6" font-family="DejaVu Sans,sans-serif" font-size="8.00">AltOS tile files</text>
<polyline fill="none" stroke="black" points="127,-39 67,-39 88.97,-60.75 "/>
</g>
<!-- google_maps -->
<g id="node6" class="node">
<title>google_maps</title>
<polygon fill="#4cbb44" stroke="#4cbb44" points="256,-21 162,-21 162,0 256,0 256,-21"/>
<text text-anchor="middle" x="209" y="-7.4" font-family="DejaVu Sans,sans-serif" font-size="12.00" fill="white">Google Maps</text>
</g>
<!-- cache_manager&#45;&gt;google_maps -->
<g id="edge8" class="edge">
<title>cache_manager&#45;&gt;google_maps</title>
<path fill="none" stroke="black" stroke-width="2" d="M138.74,-65.97C135.91,-58.07 133.61,-46.9 139,-39 143.63,-32.21 150.21,-27.1 157.51,-23.24"/>
<polygon fill="black" stroke="black" stroke-width="2" points="158.4,-24.76 162.13,-21.01 156.87,-21.61 158.4,-24.76"/>
<text text-anchor="middle" x="173" y="-41.6" font-family="DejaVu Sans,sans-serif" font-size="8.00">Google Map URI</text>
<polyline fill="none" stroke="black" points="207,-39 139,-39 157.47,-23.27 "/>
</g>
<!-- google_maps&#45;&gt;cache_manager -->
<g id="edge9" class="edge">
<title>google_maps&#45;&gt;cache_manager</title>
<path fill="none" stroke="black" stroke-width="2" d="M212.87,-21.03C215.4,-28.93 217.35,-40.11 212,-48 207.45,-54.72 200.96,-59.79 193.77,-63.63"/>
<polygon fill="black" stroke="black" stroke-width="2" points="192.93,-62.09 189.21,-65.86 194.47,-65.24 192.93,-62.09"/>
<text text-anchor="middle" x="248.5" y="-41.6" font-family="DejaVu Sans,sans-serif" font-size="8.00">Google Map tile</text>
<polyline fill="none" stroke="black" points="282,-39 215,-39 215.15,-39.4 "/>
</g>
</g>
</svg>
